<svg width="0" height="0"><symbol xmlns="http://www.w3.org/2000/svg" id="add" fill="none" viewBox="0 0 24 24"><path fill="currentColor" d="M15.556 4H5.778C4.8 4 4 4.8 4 5.778v12.444C4 19.2 4.8 20 5.778 20h12.444C19.2 20 20 19.2 20 18.222V8.444L15.556 4Zm-8 3.556H12v1.777H7.556V7.556Zm8.888 8.888H7.556v-1.777h8.888v1.777Zm0-3.555H7.556V11.11h8.888v1.778Zm-1.777-3.556V5.778l3.555 3.555h-3.555Z"/></symbol><symbol xmlns="http://www.w3.org/2000/svg" id="delete" fill="none" viewBox="0 0 16 16"><g clip-path="url(#a)"><path fill="currentColor" d="M2.5 1a1 1 0 0 0-1 1v1a1 1 0 0 0 1 1H3v9a2 2 0 0 0 2 2h6a2 2 0 0 0 2-2V4h.5a1 1 0 0 0 1-1V2a1 1 0 0 0-1-1H10a1 1 0 0 0-1-1H7a1 1 0 0 0-1 1H2.5Zm3 4a.5.5 0 0 1 .5.5v7a.5.5 0 0 1-1 0v-7a.5.5 0 0 1 .5-.5ZM8 5a.5.5 0 0 1 .5.5v7a.5.5 0 0 1-1 0v-7A.5.5 0 0 1 8 5Zm3 .5v7a.5.5 0 0 1-1 0v-7a.5.5 0 0 1 1 0Z"/></g></symbol></svg>